<?xml version="1.0" encoding="UTF-8" standalone="no"?>
<!-- Created with Inkscape (http://www.inkscape.org/) -->

<svg
   xmlns:dc="http://purl.org/dc/elements/1.1/"
   xmlns:cc="http://creativecommons.org/ns#"
   xmlns:rdf="http://www.w3.org/1999/02/22-rdf-syntax-ns#"
   xmlns:svg="http://www.w3.org/2000/svg"
   xmlns="http://www.w3.org/2000/svg"
   xmlns:sodipodi="http://sodipodi.sourceforge.net/DTD/sodipodi-0.dtd"
   xmlns:inkscape="http://www.inkscape.org/namespaces/inkscape"
   width="32px"
   height="32px"
   viewBox="0 0 32 32"
   version="1.1"
   id="SVGRoot"
   inkscape:version="0.92.4 (5da689c313, 2019-01-14)"
   sodipodi:docname="error.svg"
   inkscape:export-filename="C:\Github\StarboundModManager\src\main\resources\application\error_white.png"
   inkscape:export-xdpi="48"
   inkscape:export-ydpi="48">
  <defs
     id="defs815">
    <inkscape:path-effect
       effect="bspline"
       id="path-effect1958"
       is_visible="true"
       weight="33.333333"
       steps="2"
       helper_size="0"
       apply_no_weight="true"
       apply_with_weight="true"
       only_selected="false" />
  </defs>
  <sodipodi:namedview
     id="base"
     pagecolor="#ffffff"
     bordercolor="#666666"
     borderopacity="1.0"
     inkscape:pageopacity="0.0"
     inkscape:pageshadow="2"
     inkscape:zoom="16"
     inkscape:cx="14.628108"
     inkscape:cy="13.614933"
     inkscape:document-units="px"
     inkscape:current-layer="g1968"
     showgrid="false"
     inkscape:window-width="1920"
     inkscape:window-height="1017"
     inkscape:window-x="1912"
     inkscape:window-y="-8"
     inkscape:window-maximized="1"
     inkscape:grid-bbox="true"
     inkscape:pagecheckerboard="true" />
  <metadata
     id="metadata818">
    <rdf:RDF>
      <cc:Work
         rdf:about="">
        <dc:format>image/svg+xml</dc:format>
        <dc:type
           rdf:resource="http://purl.org/dc/dcmitype/StillImage" />
        <dc:title />
      </cc:Work>
    </rdf:RDF>
  </metadata>
  <g
     inkscape:label="Ebene 1"
     inkscape:groupmode="layer"
     id="layer1">
    <g
       id="g1968"
       transform="matrix(1.0497076,0,0,1.0497076,-0.79532202,-0.79532202)">
      <path
         style="color:#000000;font-style:normal;font-variant:normal;font-weight:normal;font-stretch:normal;font-size:medium;line-height:normal;font-family:sans-serif;font-variant-ligatures:normal;font-variant-position:normal;font-variant-caps:normal;font-variant-numeric:normal;font-variant-alternates:normal;font-feature-settings:normal;text-indent:0;text-align:start;text-decoration:none;text-decoration-line:none;text-decoration-style:solid;text-decoration-color:#000000;letter-spacing:normal;word-spacing:normal;text-transform:none;writing-mode:lr-tb;direction:ltr;text-orientation:mixed;dominant-baseline:auto;baseline-shift:baseline;text-anchor:start;white-space:normal;shape-padding:0;clip-rule:nonzero;display:inline;overflow:visible;visibility:visible;opacity:1;isolation:auto;mix-blend-mode:normal;color-interpolation:sRGB;color-interpolation-filters:linearRGB;solid-color:#000000;solid-opacity:1;vector-effect:none;fill:#000000;fill-opacity:1;fill-rule:nonzero;stroke:none;stroke-width:2.66456699;stroke-linecap:round;stroke-linejoin:round;stroke-miterlimit:4;stroke-dasharray:none;stroke-dashoffset:0;stroke-opacity:1;paint-order:normal;color-rendering:auto;image-rendering:auto;shape-rendering:auto;text-rendering:auto;enable-background:accumulate"
         d="M 16.03125,0.91210938 A 1.3324167,1.3324167 0 0 0 15.333984,1.0898438 L 3.4199219,7.96875 A 1.3324167,1.3324167 0 0 0 2.7539062,9.1210938 V 22.878906 a 1.3324167,1.3324167 0 0 0 0.6660157,1.152344 l 11.9140621,6.878906 a 1.3324167,1.3324167 0 0 0 1.332032,0 L 28.580078,24.03125 a 1.3324167,1.3324167 0 0 0 0.666016,-1.152344 V 9.1210938 A 1.3324167,1.3324167 0 0 0 28.580078,7.96875 L 16.666016,1.0898438 A 1.3324167,1.3324167 0 0 0 16.03125,0.91210938 Z M 16,3.7832031 26.580078,9.890625 v 12.21875 L 16,28.216797 5.4199219,22.109375 V 9.890625 Z"
         id="path1951"
         inkscape:connector-curvature="0" />
      <path
         d="m 14.773438,5.9140625 a 0.61322282,0.61322282 0 0 0 -0.613282,0.6308594 l 0.376953,13.5449221 a 0.61322282,0.61322282 0 0 0 0.613282,0.595703 H 16.875 a 0.61322282,0.61322282 0 0 0 0.613281,-0.597656 L 17.839844,6.5429688 A 0.61322282,0.61322282 0 0 0 17.226562,5.9140625 Z m 0.123046,16.5605465 a 0.61322282,0.61322282 0 0 0 -0.613281,0.613282 v 2.296875 a 0.61322282,0.61322282 0 0 0 0.613281,0.613281 h 2.207032 a 0.61322282,0.61322282 0 0 0 0.613281,-0.613281 v -2.296875 a 0.61322282,0.61322282 0 0 0 -0.613281,-0.613282 z"
         id="path1962"
         style="font-style:normal;font-weight:normal;font-size:36.18708801px;line-height:1.25;font-family:sans-serif;letter-spacing:0px;word-spacing:0px;fill:#000000;fill-opacity:1;stroke:none;stroke-width:0.90467721"
         inkscape:original="M 14.773438 6.5273438 L 15.150391 20.072266 L 16.875 20.072266 L 17.226562 6.5273438 L 14.773438 6.5273438 z M 14.896484 23.087891 L 14.896484 25.384766 L 17.103516 25.384766 L 17.103516 23.087891 L 14.896484 23.087891 z "
         inkscape:radius="0.6131615"
         sodipodi:type="inkscape:offset" />
    </g>
  </g>
</svg>
